<svg xmlns="http://www.w3.org/2000/svg" viewBox="0 0 191.42 84.99"><defs><style>.cls-1{fill:#fff200;}.cls-2{fill:#d2232a;}.cls-3{fill:none;stroke:#fff200;stroke-width:2.01px;}.cls-4{fill:#fff;}</style></defs><g id="Layer_2" data-name="Layer 2"><g id="Layer_1-2" data-name="Layer 1"><path class="cls-1" d="M124,32.91S115.15,13.62,86.16,0a44.07,44.07,0,0,1,6.06,12.75S73.44.6,40.31,3.8c0,0,3.91,1.89,9.66,7.83A79,79,0,0,0,.37,35.06S41.41,4.43,76,20.66c0,0-6.53-7.95-11.71-11.2,0,0,30.23,4.75,40.61,21.56A52.62,52.62,0,0,0,101.49,16s14.07,6.44,22.55,17"/><path class="cls-1" d="M67.38,32.91S76.28,13.62,105.27,0A43.93,43.93,0,0,0,99.2,12.75S118,.6,151.11,3.8c0,0-3.91,1.89-9.66,7.83a79,79,0,0,1,49.6,23.43s-41-30.63-75.61-14.4c0,0,6.53-7.95,11.71-11.2,0,0-30.23,4.75-40.61,21.56A52.62,52.62,0,0,1,89.93,16s-14.07,6.44-22.55,17"/><path class="cls-2" d="M14.91,44.43c-.14-.89-.35-2.56-2.41-2.56a2.19,2.19,0,0,0-2.31,2.06c0,1.56.71,1.89,5.43,4,4.9,2.2,6.15,4.47,6.15,7.52,0,3.84-2.21,8.06-9.17,8.06-7.59,0-9.48-5-9.48-8.34v-.85H9.8c0,3,1.88,3.58,2.73,3.58a2.53,2.53,0,0,0,2.56-2.52c0-1.74-1.1-2.16-5.15-3.87C8.09,50.79,3.51,48.94,3.51,44s4.8-7.74,9.2-7.74a9.34,9.34,0,0,1,7.1,3,7.92,7.92,0,0,1,1.74,5.18Z"/><path class="cls-2" d="M37.67,36.26a13.64,13.64,0,1,1,0,27.28A13.55,13.55,0,0,1,23.82,50.22a14.87,14.87,0,0,1,1-5.61,13.66,13.66,0,0,1,12.82-8.35m.11,21.38c4.76,0,7.07-4.33,7.07-7.71s-2.31-7.77-7.14-7.77c-4.65,0-7.17,4-7.17,7.67,0,4.05,2.73,7.81,7.24,7.81"/><polygon class="cls-2" points="55.36 36.76 62.07 36.76 62.07 57.14 69.84 57.14 69.84 63.04 55.36 63.04 55.36 36.76"/><path class="cls-2" d="M85.19,36.26a13.64,13.64,0,1,1-13.85,14,14.68,14.68,0,0,1,1-5.61,13.65,13.65,0,0,1,12.82-8.35m.1,21.38c4.76,0,7.07-4.33,7.07-7.71s-2.31-7.77-7.14-7.77c-4.65,0-7.17,4-7.17,7.67,0,4.05,2.73,7.81,7.24,7.81"/><polygon class="cls-2" points="102.69 36.76 111.32 36.76 116.54 54.05 116.61 54.05 121.76 36.76 130.42 36.76 130.42 63.04 124.25 63.04 124.46 43.37 124.39 43.29 118.78 63.04 114.34 63.04 108.73 43.29 108.66 43.37 108.87 63.04 102.69 63.04 102.69 36.76"/><path class="cls-2" d="M147.89,36.26a13.64,13.64,0,1,1-13.84,14,14.68,14.68,0,0,1,1-5.61,13.64,13.64,0,0,1,12.81-8.35M148,57.64c4.76,0,7.07-4.33,7.07-7.71s-2.31-7.77-7.14-7.77c-4.65,0-7.17,4-7.17,7.67,0,4.05,2.73,7.81,7.24,7.81"/><polygon class="cls-2" points="165.4 36.76 171.19 36.76 181.34 53.27 181.42 53.2 181.13 36.76 187.56 36.76 187.56 63.04 181.74 63.04 171.72 47.06 171.65 47.09 171.83 63.04 165.4 63.04 165.4 36.76"/><rect class="cls-1" x="1.08" y="65.7" width="188.49" height="18.24"/><polygon points="11.94 70.2 6.64 70.2 6.64 73.64 11.63 73.64 11.63 76.03 6.64 76.03 6.64 79.92 12.15 79.92 12.15 82.31 3.65 82.31 3.65 67.81 11.94 67.81 11.94 70.2"/><polygon points="13.64 67.81 16.64 67.81 16.64 79.92 21.94 79.92 21.94 82.31 13.64 82.31 13.64 67.81"/><polygon points="31.56 70.2 26.26 70.2 26.26 73.64 31.25 73.64 31.25 76.03 26.26 76.03 26.26 79.92 31.77 79.92 31.77 82.31 23.27 82.31 23.27 67.81 31.56 67.81 31.56 70.2"/><path d="M39.22,70.38A1.69,1.69,0,0,0,36.89,70a2,2,0,0,0-.57,1A7.63,7.63,0,0,0,36,72.64q-.09,1.06-.09,2.61a23.8,23.8,0,0,0,.12,2.67,5.57,5.57,0,0,0,.35,1.57,1.39,1.39,0,0,0,.6.75,1.74,1.74,0,0,0,.84.2,2,2,0,0,0,.74-.13,1.28,1.28,0,0,0,.59-.53,3.16,3.16,0,0,0,.39-1.12,9.6,9.6,0,0,0,.15-1.89h3A12.35,12.35,0,0,1,42.53,79a5,5,0,0,1-.7,1.85,3.41,3.41,0,0,1-1.43,1.24,5.53,5.53,0,0,1-2.4.45A5.62,5.62,0,0,1,35.32,82a3.56,3.56,0,0,1-1.53-1.52,6.4,6.4,0,0,1-.69-2.38,30.88,30.88,0,0,1,0-6.08,6.58,6.58,0,0,1,.69-2.39,3.77,3.77,0,0,1,1.53-1.56A5.51,5.51,0,0,1,38,67.52a5.28,5.28,0,0,1,2.53.51,3.46,3.46,0,0,1,1.39,1.28A4.41,4.41,0,0,1,42.49,71a14.64,14.64,0,0,1,.11,1.69h-3a5.09,5.09,0,0,0-.39-2.3"/><polygon points="53.12 70.2 49.87 70.2 49.87 82.31 46.87 82.31 46.87 70.2 43.63 70.2 43.63 67.81 53.12 67.81 53.12 70.2"/><path d="M59.93,67.81a4.25,4.25,0,0,1,2.92.93,3.56,3.56,0,0,1,1,2.81,4.29,4.29,0,0,1-.6,2.38,2.75,2.75,0,0,1-1.86,1.19v0a2.76,2.76,0,0,1,1.65.72,3,3,0,0,1,.64,1.76c0,.28.06.57.07.89s0,.67,0,1.07c0,.77,0,1.36.08,1.76a1.18,1.18,0,0,0,.54.84v.11H61.23a1.42,1.42,0,0,1-.29-.7,7.09,7.09,0,0,1-.09-.82L60.77,78a2.23,2.23,0,0,0-.44-1.34A1.62,1.62,0,0,0,59,76.17H57.4v6.14h-3V67.81Zm-1.29,6.34a2.41,2.41,0,0,0,1.66-.5A2.1,2.1,0,0,0,60.89,72a1.81,1.81,0,0,0-2.08-2H57.4v4.2Z"/><rect x="66.1" y="67.81" width="3" height="14.5"/><path d="M77.28,70.38a1.46,1.46,0,0,0-1.41-.72A1.45,1.45,0,0,0,75,70a1.87,1.87,0,0,0-.57,1,8.15,8.15,0,0,0-.3,1.73c0,.71-.08,1.58-.08,2.61s0,2,.11,2.67a5.89,5.89,0,0,0,.36,1.57,1.39,1.39,0,0,0,.6.75,1.74,1.74,0,0,0,.84.2,2,2,0,0,0,.74-.13,1.33,1.33,0,0,0,.59-.53,3.61,3.61,0,0,0,.39-1.12,9.6,9.6,0,0,0,.15-1.89h3A13.32,13.32,0,0,1,80.59,79a5.13,5.13,0,0,1-.7,1.85,3.47,3.47,0,0,1-1.43,1.24,5.54,5.54,0,0,1-2.41.45A5.67,5.67,0,0,1,73.37,82a3.68,3.68,0,0,1-1.53-1.52,6.59,6.59,0,0,1-.68-2.38,29,29,0,0,1,0-6.08,6.39,6.39,0,0,1,.69-2.39,3.77,3.77,0,0,1,1.53-1.56,5.51,5.51,0,0,1,2.68-.56,5.28,5.28,0,0,1,2.53.51A3.37,3.37,0,0,1,80,69.31,4.26,4.26,0,0,1,80.55,71a14.64,14.64,0,0,1,.11,1.69h-3a5.25,5.25,0,0,0-.38-2.3"/><path d="M89.07,67.81,93,82.31H89.88l-.68-3h-4l-.69,3H81.44l3.93-14.5Zm-.39,9-1.44-6.53h0l-1.43,6.53Z"/><polygon points="94.04 67.81 97.03 67.81 97.03 79.92 102.33 79.92 102.33 82.31 94.04 82.31 94.04 67.81"/><path d="M111.07,78.21a5.25,5.25,0,0,0,.08.92,1.66,1.66,0,0,0,.31.7,1.65,1.65,0,0,0,.61.45,2.69,2.69,0,0,0,1,.16,2,2,0,0,0,1.23-.44,1.64,1.64,0,0,0,.55-1.35,2.38,2.38,0,0,0-.14-.84,1.71,1.71,0,0,0-.44-.64,3.51,3.51,0,0,0-.82-.52q-.51-.23-1.26-.48a10.16,10.16,0,0,1-1.73-.71,4.55,4.55,0,0,1-1.21-.9,3.13,3.13,0,0,1-.72-1.2,5,5,0,0,1-.23-1.57,4,4,0,0,1,1.23-3.21,5,5,0,0,1,3.37-1.06,7.09,7.09,0,0,1,1.84.22,3.86,3.86,0,0,1,1.46.68,3.19,3.19,0,0,1,1,1.21,4.3,4.3,0,0,1,.34,1.77v.41h-2.88a2.83,2.83,0,0,0-.38-1.59,1.35,1.35,0,0,0-1.24-.56,2,2,0,0,0-.83.14,1.32,1.32,0,0,0-.53.38,1.25,1.25,0,0,0-.27.54,3.2,3.2,0,0,0-.07.63,2.13,2.13,0,0,0,.29,1.13,2.69,2.69,0,0,0,1.25.84l2.3,1a7,7,0,0,1,1.39.76,3.69,3.69,0,0,1,.86.86,3,3,0,0,1,.45,1,5.83,5.83,0,0,1,.12,1.23,3.93,3.93,0,0,1-1.36,3.34,6.06,6.06,0,0,1-3.79,1.05,5,5,0,0,1-3.62-1.08,4.19,4.19,0,0,1-1.09-3.09v-.59h3Z"/><polygon points="127.73 70.2 122.43 70.2 122.43 73.64 127.42 73.64 127.42 76.03 122.43 76.03 122.43 79.92 127.94 79.92 127.94 82.31 119.44 82.31 119.44 67.81 127.73 67.81 127.73 70.2"/><path d="M135,67.81a4.25,4.25,0,0,1,2.92.93,3.57,3.57,0,0,1,1,2.81,4.29,4.29,0,0,1-.6,2.38,2.79,2.79,0,0,1-1.87,1.19v0a2.76,2.76,0,0,1,1.65.72,3,3,0,0,1,.64,1.76c0,.28.06.57.07.89s0,.67.05,1.07c0,.77,0,1.36.09,1.76a1.13,1.13,0,0,0,.54.84v.11h-3.23a1.51,1.51,0,0,1-.29-.7,7.12,7.12,0,0,1-.08-.82L135.8,78a2.23,2.23,0,0,0-.43-1.34,1.66,1.66,0,0,0-1.34-.49h-1.6v6.14h-3V67.81Zm-1.28,6.34a2.44,2.44,0,0,0,1.66-.5,2.13,2.13,0,0,0,.58-1.68,1.81,1.81,0,0,0-2.08-2h-1.41v4.2Z"/><polygon points="145.31 78.53 145.38 78.53 147.58 67.81 150.68 67.81 147.27 82.31 143.42 82.31 140.01 67.81 143.21 67.81 145.31 78.53"/><rect x="151.92" y="67.81" width="3" height="14.5"/><path d="M163.1,70.38a1.46,1.46,0,0,0-1.41-.72,1.45,1.45,0,0,0-.92.29,1.94,1.94,0,0,0-.58,1,8.94,8.94,0,0,0-.29,1.73c-.05.71-.08,1.58-.08,2.61s0,2,.11,2.67a5.89,5.89,0,0,0,.36,1.57,1.39,1.39,0,0,0,.6.75,1.74,1.74,0,0,0,.84.2,1.93,1.93,0,0,0,.73-.13,1.3,1.3,0,0,0,.6-.53,3.61,3.61,0,0,0,.39-1.12,9.6,9.6,0,0,0,.15-1.89h3a13.34,13.34,0,0,1-.18,2.23,5.13,5.13,0,0,1-.7,1.85,3.47,3.47,0,0,1-1.43,1.24,5.54,5.54,0,0,1-2.41.45,5.67,5.67,0,0,1-2.68-.53,3.68,3.68,0,0,1-1.53-1.52,6.59,6.59,0,0,1-.68-2.38A29,29,0,0,1,157,72a6.58,6.58,0,0,1,.68-2.39,3.89,3.89,0,0,1,1.53-1.56,5.55,5.55,0,0,1,2.69-.56,5.28,5.28,0,0,1,2.53.51,3.37,3.37,0,0,1,1.38,1.28,4.09,4.09,0,0,1,.57,1.68,12.78,12.78,0,0,1,.12,1.69h-3a5.25,5.25,0,0,0-.38-2.3"/><polygon points="176.6 70.2 171.3 70.2 171.3 73.64 176.28 73.64 176.28 76.03 171.3 76.03 171.3 79.92 176.81 79.92 176.81 82.31 168.3 82.31 168.3 67.81 176.6 67.81 176.6 70.2"/><path d="M180.72,78.21a5.25,5.25,0,0,0,.08.92,1.66,1.66,0,0,0,.31.7,1.57,1.57,0,0,0,.61.45,2.67,2.67,0,0,0,1,.16,2,2,0,0,0,1.24-.44,1.64,1.64,0,0,0,.55-1.35,2.38,2.38,0,0,0-.14-.84,1.63,1.63,0,0,0-.45-.64,3.13,3.13,0,0,0-.82-.52c-.34-.15-.75-.31-1.25-.48a10.16,10.16,0,0,1-1.73-.71,4.55,4.55,0,0,1-1.21-.9,3.13,3.13,0,0,1-.72-1.2,5,5,0,0,1-.23-1.57,4,4,0,0,1,1.23-3.21,5,5,0,0,1,3.37-1.06,7.09,7.09,0,0,1,1.84.22,3.86,3.86,0,0,1,1.46.68,3.08,3.08,0,0,1,1,1.21,4.14,4.14,0,0,1,.35,1.77v.41h-2.88a2.83,2.83,0,0,0-.38-1.59,1.36,1.36,0,0,0-1.24-.56,2,2,0,0,0-.83.14,1.32,1.32,0,0,0-.53.38,1.25,1.25,0,0,0-.27.54,2.59,2.59,0,0,0-.07.63,2.13,2.13,0,0,0,.29,1.13,2.65,2.65,0,0,0,1.24.84l2.31,1a7.35,7.35,0,0,1,1.39.76,3.89,3.89,0,0,1,.86.86,2.81,2.81,0,0,1,.44,1,5.22,5.22,0,0,1,.13,1.23,3.93,3.93,0,0,1-1.36,3.34,6.08,6.08,0,0,1-3.79,1.05,5,5,0,0,1-3.62-1.08,4.15,4.15,0,0,1-1.09-3.09v-.59h3Z"/><rect class="cls-3" x="1.01" y="33.95" width="189.41" height="50.03"/><polygon class="cls-2" points="98.39 18 96.45 16.3 96.53 18.87 95.45 16.54 94.48 18.92 94.44 16.35 92.58 18.13 93.6 15.76 91.17 16.63 93.06 14.88 90.5 14.69 92.94 13.86 90.66 12.65 93.23 12.88 91.65 10.85 93.9 12.1 93.28 9.6 94.83 11.66 95.28 9.13 95.86 11.64 97.3 9.51 96.8 12.04 98.99 10.68 97.51 12.78 100.06 12.43 97.85 13.75 100.32 14.47 97.76 14.78 99.73 16.44 97.27 15.68 98.39 18"/><polygon class="cls-4" points="96.9 16.01 95.93 15.16 95.97 16.45 95.43 15.28 94.94 16.47 94.93 15.19 94 16.08 94.5 14.89 93.29 15.33 94.24 14.45 92.95 14.36 94.17 13.94 93.04 13.34 94.32 13.45 93.53 12.43 94.65 13.06 94.35 11.81 95.12 12.84 95.34 11.57 95.63 12.83 96.36 11.77 96.11 13.03 97.2 12.35 96.46 13.4 97.73 13.23 96.63 13.89 97.86 14.25 96.59 14.4 97.57 15.23 96.34 14.85 96.9 16.01"/></g></g></svg>